solid Calibration
facet normal 0.0 0.0 -1.0
outer loop
vertex 0.0 20.0 0.0
vertex 3.79765877690327 5.96227625100189 -2.8199664825479e-015
vertex 0.0 0.0 0.0
endloop
endfacet
facet normal 0.0 0.0 -1.0
outer loop
vertex 3.79765877690327 5.96227625100189 -2.8199664825479e-015
vertex 0.0 20.0 0.0
vertex 4.08768298100802 6.24067629011664 -2.8199664825479e-015
endloop
endfacet
facet normal 0.0 0.0 -1.0
outer loop
vertex 4.08768298100802 6.24067629011664 -2.8199664825479e-015
vertex 0.0 20.0 0.0
vertex 20.0 20.0 0.0
endloop
endfacet
facet normal 0.0 0.0 -1.0
outer loop
vertex 0.0 0.0 0.0
vertex 3.79765877690327 5.96227625100189 -2.8199664825479e-015
vertex 3.58957214018974 5.61829867561805 -2.8199664825479e-015
endloop
endfacet
facet normal 0.0 0.0 -1.0
outer loop
vertex 0.0 0.0 0.0
vertex 3.58957214018974 5.61829867561805 -2.8199664825479e-015
vertex 3.47760383128003 5.23218506727772 -2.8199664825479e-015
endloop
endfacet
facet normal 0.0 0.0 -1.0
outer loop
vertex 0.0 0.0 0.0
vertex 3.47760383128003 5.23218506727772 -2.8199664825479e-015
vertex 3.46938430538997 4.83024843030638 -2.8199664825479e-015
endloop
endfacet
facet normal 0.0 0.0 -1.0
outer loop
vertex 4.08768298100802 6.24067629011664 -2.8199664825479e-015
vertex 20.0 20.0 0.0
vertex 4.43988008228192 6.43452629037445 -2.8199664825479e-015
endloop
endfacet
facet normal 0.0 0.0 -1.0
outer loop
vertex 4.43988008228192 6.43452629037445 -2.8199664825479e-015
vertex 20.0 20.0 0.0
vertex 4.83024843030638 6.53061569461003 -2.8199664825479e-015
endloop
endfacet
facet normal 0.0 0.0 -1.0
outer loop
vertex 4.83024843030638 6.53061569461003 -2.8199664825479e-015
vertex 20.0 20.0 0.0
vertex 5.23218506727772 6.52239616871997 -2.8199664825479e-015
endloop
endfacet
facet normal 0.0 0.0 -1.0
outer loop
vertex 5.23218506727772 6.52239616871997 -2.8199664825479e-015
vertex 20.0 20.0 0.0
vertex 5.61829867561805 6.41042785981026 -2.8199664825479e-015
endloop
endfacet
facet normal 0.0 0.0 -1.0
outer loop
vertex 5.61829867561805 6.41042785981026 -2.8199664825479e-015
vertex 20.0 20.0 0.0
vertex 5.96227625100189 6.20234122309673 -2.8199664825479e-015
endloop
endfacet
facet normal 0.0 0.0 -1.0
outer loop
vertex 5.96227625100189 6.20234122309673 -2.8199664825479e-015
vertex 20.0 20.0 0.0
vertex 6.24067629011664 5.91231701899198 -2.8199664825479e-015
endloop
endfacet
facet normal 0.0 0.0 -1.0
outer loop
vertex 6.24067629011664 5.91231701899198 -2.8199664825479e-015
vertex 20.0 20.0 0.0
vertex 6.43452629037445 5.56011991771808 -2.8199664825479e-015
endloop
endfacet
facet normal 0.0 0.0 -1.0
outer loop
vertex 6.43452629037445 5.56011991771808 -2.8199664825479e-015
vertex 20.0 20.0 0.0
vertex 6.53061569461003 5.16975156969362 -2.8199664825479e-015
endloop
endfacet
facet normal 0.0 0.0 -1.0
outer loop
vertex 0.0 0.0 0.0
vertex 4.76781493272228 3.47760383128003 -2.8199664825479e-015
vertex 20.0 0.0 0.0
endloop
endfacet
facet normal 0.0 0.0 -1.0
outer loop
vertex 4.76781493272228 3.47760383128003 -2.8199664825479e-015
vertex 0.0 0.0 0.0
vertex 4.38170132438195 3.58957214018974 -2.8199664825479e-015
endloop
endfacet
facet normal 0.0 0.0 -1.0
outer loop
vertex 4.38170132438195 3.58957214018974 -2.8199664825479e-015
vertex 0.0 0.0 0.0
vertex 4.03772374899811 3.79765877690327 -2.8199664825479e-015
endloop
endfacet
facet normal 0.0 0.0 -1.0
outer loop
vertex 4.03772374899811 3.79765877690327 -2.8199664825479e-015
vertex 0.0 0.0 0.0
vertex 3.75932370988336 4.08768298100802 -2.8199664825479e-015
endloop
endfacet
facet normal 0.0 0.0 -1.0
outer loop
vertex 3.75932370988336 4.08768298100802 -2.8199664825479e-015
vertex 0.0 0.0 0.0
vertex 3.56547370962555 4.43988008228192 -2.8199664825479e-015
endloop
endfacet
facet normal 0.0 0.0 -1.0
outer loop
vertex 3.56547370962555 4.43988008228192 -2.8199664825479e-015
vertex 0.0 0.0 0.0
vertex 3.46938430538997 4.83024843030638 -2.8199664825479e-015
endloop
endfacet
facet normal 0.0 0.0 -1.0
outer loop
vertex 20.0 0.0 0.0
vertex 4.76781493272228 3.47760383128003 -2.8199664825479e-015
vertex 5.16975156969362 3.46938430538997 -2.8199664825479e-015
endloop
endfacet
facet normal 0.0 0.0 -1.0
outer loop
vertex 20.0 0.0 0.0
vertex 5.16975156969362 3.46938430538997 -2.8199664825479e-015
vertex 5.56011991771808 3.56547370962555 -2.8199664825479e-015
endloop
endfacet
facet normal 0.0 0.0 -1.0
outer loop
vertex 20.0 0.0 0.0
vertex 5.56011991771808 3.56547370962555 -2.8199664825479e-015
vertex 5.91231701899198 3.75932370988336 -2.8199664825479e-015
endloop
endfacet
facet normal 0.0 0.0 -1.0
outer loop
vertex 20.0 0.0 0.0
vertex 5.91231701899198 3.75932370988336 -2.8199664825479e-015
vertex 6.20234122309673 4.03772374899811 -2.8199664825479e-015
endloop
endfacet
facet normal 0.0 0.0 -1.0
outer loop
vertex 20.0 0.0 0.0
vertex 6.20234122309673 4.03772374899811 -2.8199664825479e-015
vertex 6.41042785981026 4.38170132438195 -2.8199664825479e-015
endloop
endfacet
facet normal 0.0 0.0 -1.0
outer loop
vertex 20.0 0.0 0.0
vertex 6.41042785981026 4.38170132438195 -2.8199664825479e-015
vertex 6.52239616871997 4.76781493272228 -2.8199664825479e-015
endloop
endfacet
facet normal 0.0 0.0 -1.0
outer loop
vertex 20.0 0.0 0.0
vertex 6.52239616871997 4.76781493272228 -2.8199664825479e-015
vertex 6.53061569461003 5.16975156969362 -2.8199664825479e-015
endloop
endfacet
facet normal 0.0 0.0 -1.0
outer loop
vertex 20.0 0.0 0.0
vertex 6.53061569461003 5.16975156969362 -2.8199664825479e-015
vertex 20.0 20.0 0.0
endloop
endfacet
facet normal 0.0 1.0 2.93746508598739e-016
outer loop
vertex 12.25 13.8 10.0
vertex 17.75 13.8 5.0
vertex 12.25 13.8 5.0
endloop
endfacet
facet normal 0.0 1.0 2.93746508598739e-016
outer loop
vertex 17.75 13.8 5.0
vertex 12.25 13.8 10.0
vertex 17.75 13.8 10.0
endloop
endfacet
facet normal -1.0 7.53050280558102e-032 -1.28180294661268e-016
outer loop
vertex 17.75 16.2 10.0
vertex 17.75 13.8 5.0
vertex 17.75 13.8 10.0
endloop
endfacet
facet normal -1.0 7.53050280558102e-032 -1.28180294661268e-016
outer loop
vertex 17.75 13.8 5.0
vertex 17.75 16.2 10.0
vertex 17.75 16.2 5.0
endloop
endfacet
facet normal 7.53050280558102e-032 -1.0 -2.93746508598739e-016
outer loop
vertex 17.75 16.2 5.0
vertex 12.25 16.2 10.0
vertex 12.25 16.2 5.0
endloop
endfacet
facet normal 7.53050280558102e-032 -1.0 -2.93746508598739e-016
outer loop
vertex 12.25 16.2 10.0
vertex 17.75 16.2 5.0
vertex 17.75 16.2 10.0
endloop
endfacet
facet normal -0.624854708442785 -0.780741053958918 0.0
outer loop
vertex 5.96227625100189 6.20234122309673 8.0
vertex 6.24067629011664 5.91231701899198 -2.8199664825479e-015
vertex 6.24067629011664 5.91231701899198 8.0
endloop
endfacet
facet normal -0.805633954621194 -0.592413648696091 0.0
outer loop
vertex 6.24067629011664 5.91231701899198 -2.8199664825479e-015
vertex 5.96227625100189 6.20234122309673 8.0
vertex 5.96227625100189 6.20234122309673 -2.8199664825479e-015
endloop
endfacet
facet normal -0.624854708442785 -0.780741053958918 0.0
outer loop
vertex 5.96227625100189 6.20234122309673 8.0
vertex 5.61829867561805 6.41042785981026 -2.8199664825479e-015
vertex 5.96227625100189 6.20234122309673 -2.8199664825479e-015
endloop
endfacet
facet normal -0.401492646505229 -0.915862246630042 0.0
outer loop
vertex 5.61829867561805 6.41042785981026 -2.8199664825479e-015
vertex 5.96227625100189 6.20234122309673 8.0
vertex 5.61829867561805 6.41042785981026 8.0
endloop
endfacet
facet normal -0.401492646505229 -0.915862246630042 0.0
outer loop
vertex 5.61829867561805 6.41042785981026 8.0
vertex 5.23218506727772 6.52239616871997 -2.8199664825479e-015
vertex 5.61829867561805 6.41042785981026 -2.8199664825479e-015
endloop
endfacet
facet normal -0.150769524206312 -0.988568940727253 0.0
outer loop
vertex 5.23218506727772 6.52239616871997 -2.8199664825479e-015
vertex 5.61829867561805 6.41042785981026 8.0
vertex 5.23218506727772 6.52239616871997 8.0
endloop
endfacet
facet normal -0.150769524206312 -0.988568940727253 0.0
outer loop
vertex 5.23218506727772 6.52239616871997 8.0
vertex 4.83024843030638 6.53061569461003 -2.8199664825479e-015
vertex 5.23218506727772 6.52239616871997 -2.8199664825479e-015
endloop
endfacet
facet normal 0.110228292008847 -0.99390629520132 0.0
outer loop
vertex 4.83024843030638 6.53061569461003 -2.8199664825479e-015
vertex 5.23218506727772 6.52239616871997 8.0
vertex 4.83024843030638 6.53061569461003 8.0
endloop
endfacet
facet normal 0.110228292008847 -0.99390629520132 0.0
outer loop
vertex 4.83024843030638 6.53061569461003 8.0
vertex 4.43988008228192 6.43452629037445 -2.8199664825479e-015
vertex 4.83024843030638 6.53061569461003 -2.8199664825479e-015
endloop
endfacet
facet normal 0.363714232284468 -0.93151057816523 0.0
outer loop
vertex 4.43988008228192 6.43452629037445 -2.8199664825479e-015
vertex 4.83024843030638 6.53061569461003 8.0
vertex 4.43988008228192 6.43452629037445 8.0
endloop
endfacet
facet normal 0.363714232284468 -0.93151057816523 0.0
outer loop
vertex 4.43988008228192 6.43452629037445 8.0
vertex 4.08768298100802 6.24067629011664 -2.8199664825479e-015
vertex 4.43988008228192 6.43452629037445 -2.8199664825479e-015
endloop
endfacet
facet normal 0.59241364869609 -0.805633954621195 0.0
outer loop
vertex 4.08768298100802 6.24067629011664 -2.8199664825479e-015
vertex 4.43988008228192 6.43452629037445 8.0
vertex 4.08768298100802 6.24067629011664 8.0
endloop
endfacet
facet normal 0.59241364869609 -0.805633954621195 0.0
outer loop
vertex 4.08768298100802 6.24067629011664 8.0
vertex 3.79765877690327 5.96227625100189 -2.8199664825479e-015
vertex 4.08768298100802 6.24067629011664 -2.8199664825479e-015
endloop
endfacet
facet normal 0.780741053958918 -0.624854708442785 0.0
outer loop
vertex 3.79765877690327 5.96227625100189 -2.8199664825479e-015
vertex 4.08768298100802 6.24067629011664 8.0
vertex 3.79765877690327 5.96227625100189 8.0
endloop
endfacet
facet normal 0.780741053958918 -0.624854708442785 0.0
outer loop
vertex 3.79765877690327 5.96227625100189 -2.8199664825479e-015
vertex 3.58957214018974 5.61829867561805 8.0
vertex 3.58957214018974 5.61829867561805 -2.8199664825479e-015
endloop
endfacet
facet normal 0.915862246630042 -0.401492646505229 0.0
outer loop
vertex 3.58957214018974 5.61829867561805 8.0
vertex 3.79765877690327 5.96227625100189 -2.8199664825479e-015
vertex 3.79765877690327 5.96227625100189 8.0
endloop
endfacet
facet normal 0.915862246630042 -0.401492646505229 0.0
outer loop
vertex 3.58957214018974 5.61829867561805 -2.8199664825479e-015
vertex 3.47760383128003 5.23218506727772 8.0
vertex 3.47760383128003 5.23218506727772 -2.8199664825479e-015
endloop
endfacet
facet normal 0.988568940727253 -0.150769524206312 0.0
outer loop
vertex 3.47760383128003 5.23218506727772 8.0
vertex 3.58957214018974 5.61829867561805 -2.8199664825479e-015
vertex 3.58957214018974 5.61829867561805 8.0
endloop
endfacet
facet normal 0.988568940727253 -0.150769524206312 0.0
outer loop
vertex 3.47760383128003 5.23218506727772 -2.8199664825479e-015
vertex 3.46938430538997 4.83024843030638 8.0
vertex 3.46938430538997 4.83024843030638 -2.8199664825479e-015
endloop
endfacet
facet normal 0.993906295201319 0.110228292008848 0.0
outer loop
vertex 3.46938430538997 4.83024843030638 8.0
vertex 3.47760383128003 5.23218506727772 -2.8199664825479e-015
vertex 3.47760383128003 5.23218506727772 8.0
endloop
endfacet
facet normal 0.993906295201319 0.110228292008848 0.0
outer loop
vertex 3.46938430538997 4.83024843030638 -2.8199664825479e-015
vertex 3.56547370962555 4.43988008228192 8.0
vertex 3.56547370962555 4.43988008228192 -2.8199664825479e-015
endloop
endfacet
facet normal 0.931510578165229 0.363714232284468 0.0
outer loop
vertex 3.56547370962555 4.43988008228192 8.0
vertex 3.46938430538997 4.83024843030638 -2.8199664825479e-015
vertex 3.46938430538997 4.83024843030638 8.0
endloop
endfacet
facet normal 0.931510578165229 0.363714232284468 0.0
outer loop
vertex 3.56547370962555 4.43988008228192 -2.8199664825479e-015
vertex 3.75932370988336 4.08768298100802 8.0
vertex 3.75932370988336 4.08768298100802 -2.8199664825479e-015
endloop
endfacet
facet normal 0.805633954621194 0.592413648696091 0.0
outer loop
vertex 3.75932370988336 4.08768298100802 8.0
vertex 3.56547370962555 4.43988008228192 -2.8199664825479e-015
vertex 3.56547370962555 4.43988008228192 8.0
endloop
endfacet
facet normal 0.805633954621194 0.592413648696091 0.0
outer loop
vertex 3.75932370988336 4.08768298100802 -2.8199664825479e-015
vertex 4.03772374899811 3.79765877690327 8.0
vertex 4.03772374899811 3.79765877690327 -2.8199664825479e-015
endloop
endfacet
facet normal 0.624854708442785 0.780741053958918 0.0
outer loop
vertex 4.03772374899811 3.79765877690327 8.0
vertex 3.75932370988336 4.08768298100802 -2.8199664825479e-015
vertex 3.75932370988336 4.08768298100802 8.0
endloop
endfacet
facet normal 0.624854708442785 0.780741053958918 0.0
outer loop
vertex 4.03772374899811 3.79765877690327 8.0
vertex 4.38170132438195 3.58957214018974 -2.8199664825479e-015
vertex 4.03772374899811 3.79765877690327 -2.8199664825479e-015
endloop
endfacet
facet normal 0.401492646505229 0.915862246630041 0.0
outer loop
vertex 4.38170132438195 3.58957214018974 -2.8199664825479e-015
vertex 4.03772374899811 3.79765877690327 8.0
vertex 4.38170132438195 3.58957214018974 8.0
endloop
endfacet
facet normal 0.401492646505229 0.915862246630041 0.0
outer loop
vertex 4.38170132438195 3.58957214018974 8.0
vertex 4.76781493272228 3.47760383128003 -2.8199664825479e-015
vertex 4.38170132438195 3.58957214018974 -2.8199664825479e-015
endloop
endfacet
facet normal 0.150769524206312 0.988568940727253 0.0
outer loop
vertex 4.76781493272228 3.47760383128003 -2.8199664825479e-015
vertex 4.38170132438195 3.58957214018974 8.0
vertex 4.76781493272228 3.47760383128003 8.0
endloop
endfacet
facet normal 0.150769524206312 0.988568940727253 0.0
outer loop
vertex 4.76781493272228 3.47760383128003 8.0
vertex 5.16975156969362 3.46938430538997 -2.8199664825479e-015
vertex 4.76781493272228 3.47760383128003 -2.8199664825479e-015
endloop
endfacet
facet normal -0.110228292008848 0.993906295201319 0.0
outer loop
vertex 5.16975156969362 3.46938430538997 -2.8199664825479e-015
vertex 4.76781493272228 3.47760383128003 8.0
vertex 5.16975156969362 3.46938430538997 8.0
endloop
endfacet
facet normal -0.110228292008848 0.993906295201319 0.0
outer loop
vertex 5.16975156969362 3.46938430538997 8.0
vertex 5.56011991771808 3.56547370962555 -2.8199664825479e-015
vertex 5.16975156969362 3.46938430538997 -2.8199664825479e-015
endloop
endfacet
facet normal -0.363714232284469 0.931510578165229 0.0
outer loop
vertex 5.56011991771808 3.56547370962555 -2.8199664825479e-015
vertex 5.16975156969362 3.46938430538997 8.0
vertex 5.56011991771808 3.56547370962555 8.0
endloop
endfacet
facet normal -0.363714232284469 0.931510578165229 0.0
outer loop
vertex 5.56011991771808 3.56547370962555 8.0
vertex 5.91231701899198 3.75932370988336 -2.8199664825479e-015
vertex 5.56011991771808 3.56547370962555 -2.8199664825479e-015
endloop
endfacet
facet normal -0.59241364869609 0.805633954621195 0.0
outer loop
vertex 5.91231701899198 3.75932370988336 -2.8199664825479e-015
vertex 5.56011991771808 3.56547370962555 8.0
vertex 5.91231701899198 3.75932370988336 8.0
endloop
endfacet
facet normal -0.59241364869609 0.805633954621195 0.0
outer loop
vertex 5.91231701899198 3.75932370988336 8.0
vertex 6.20234122309673 4.03772374899811 -2.8199664825479e-015
vertex 5.91231701899198 3.75932370988336 -2.8199664825479e-015
endloop
endfacet
facet normal -0.780741053958917 0.624854708442786 0.0
outer loop
vertex 6.20234122309673 4.03772374899811 -2.8199664825479e-015
vertex 5.91231701899198 3.75932370988336 8.0
vertex 6.20234122309673 4.03772374899811 8.0
endloop
endfacet
facet normal -0.915862246630042 0.401492646505229 0.0
outer loop
vertex 6.41042785981026 4.38170132438195 8.0
vertex 6.20234122309673 4.03772374899811 -2.8199664825479e-015
vertex 6.20234122309673 4.03772374899811 8.0
endloop
endfacet
facet normal -0.780741053958917 0.624854708442786 0.0
outer loop
vertex 6.20234122309673 4.03772374899811 -2.8199664825479e-015
vertex 6.41042785981026 4.38170132438195 8.0
vertex 6.41042785981026 4.38170132438195 -2.8199664825479e-015
endloop
endfacet
facet normal -0.988568940727253 0.15076952420631 0.0
outer loop
vertex 6.52239616871997 4.76781493272228 8.0
vertex 6.41042785981026 4.38170132438195 -2.8199664825479e-015
vertex 6.41042785981026 4.38170132438195 8.0
endloop
endfacet
facet normal -0.915862246630042 0.401492646505229 0.0
outer loop
vertex 6.41042785981026 4.38170132438195 -2.8199664825479e-015
vertex 6.52239616871997 4.76781493272228 8.0
vertex 6.52239616871997 4.76781493272228 -2.8199664825479e-015
endloop
endfacet
facet normal -0.99390629520132 -0.110228292008847 0.0
outer loop
vertex 6.53061569461003 5.16975156969362 8.0
vertex 6.52239616871997 4.76781493272228 -2.8199664825479e-015
vertex 6.52239616871997 4.76781493272228 8.0
endloop
endfacet
facet normal -0.988568940727253 0.15076952420631 0.0
outer loop
vertex 6.52239616871997 4.76781493272228 -2.8199664825479e-015
vertex 6.53061569461003 5.16975156969362 8.0
vertex 6.53061569461003 5.16975156969362 -2.8199664825479e-015
endloop
endfacet
facet normal -0.93151057816523 -0.363714232284467 0.0
outer loop
vertex 6.43452629037445 5.56011991771808 8.0
vertex 6.53061569461003 5.16975156969362 -2.8199664825479e-015
vertex 6.53061569461003 5.16975156969362 8.0
endloop
endfacet
facet normal -0.99390629520132 -0.110228292008847 0.0
outer loop
vertex 6.53061569461003 5.16975156969362 -2.8199664825479e-015
vertex 6.43452629037445 5.56011991771808 8.0
vertex 6.43452629037445 5.56011991771808 -2.8199664825479e-015
endloop
endfacet
facet normal -0.805633954621194 -0.592413648696091 0.0
outer loop
vertex 6.24067629011664 5.91231701899198 8.0
vertex 6.43452629037445 5.56011991771808 -2.8199664825479e-015
vertex 6.43452629037445 5.56011991771808 8.0
endloop
endfacet
facet normal -0.93151057816523 -0.363714232284467 0.0
outer loop
vertex 6.43452629037445 5.56011991771808 -2.8199664825479e-015
vertex 6.24067629011664 5.91231701899198 8.0
vertex 6.24067629011664 5.91231701899198 -2.8199664825479e-015
endloop
endfacet
facet normal 0.0 0.0 1.0
outer loop
vertex 3.90768186157185 2.26506561605934 8.0
vertex 3.46938430538997 4.83024843030638 8.0
vertex 3.23704859389868 2.64096898288187 8.0
endloop
endfacet
facet normal 0.0 0.0 1.0
outer loop
vertex 3.46938430538997 4.83024843030638 8.0
vertex 3.90768186157185 2.26506561605934 8.0
vertex 3.56547370962555 4.43988008228192 8.0
endloop
endfacet
facet normal 0.0 0.0 1.0
outer loop
vertex 3.56547370962555 4.43988008228192 8.0
vertex 3.90768186157185 2.26506561605934 8.0
vertex 3.75932370988336 4.08768298100802 8.0
endloop
endfacet
facet normal 0.0 0.0 1.0
outer loop
vertex 3.75932370988336 4.08768298100802 8.0
vertex 3.90768186157185 2.26506561605934 8.0
vertex 4.03772374899811 3.79765877690327 8.0
endloop
endfacet
facet normal 0.0 0.0 1.0
outer loop
vertex 4.03772374899811 3.79765877690327 8.0
vertex 3.90768186157185 2.26506561605934 8.0
vertex 4.65275480523783 2.0755435078096 8.0
endloop
endfacet
facet normal 0.0 0.0 1.0
outer loop
vertex 4.03772374899811 3.79765877690327 8.0
vertex 4.65275480523783 2.0755435078096 8.0
vertex 4.38170132438195 3.58957214018974 8.0
endloop
endfacet
facet normal 0.0 0.0 1.0
outer loop
vertex 4.38170132438195 3.58957214018974 8.0
vertex 4.65275480523783 2.0755435078096 8.0
vertex 4.76781493272228 3.47760383128003 8.0
endloop
endfacet
facet normal 0.0 0.0 1.0
outer loop
vertex 4.76781493272228 3.47760383128003 8.0
vertex 4.65275480523783 2.0755435078096 8.0
vertex 5.42149193507703 2.08531827660977 8.0
endloop
endfacet
facet normal 0.0 0.0 1.0
outer loop
vertex 4.76781493272228 3.47760383128003 8.0
vertex 5.42149193507703 2.08531827660977 8.0
vertex 5.16975156969362 3.46938430538997 8.0
endloop
endfacet
facet normal 0.0 0.0 1.0
outer loop
vertex 5.16975156969362 3.46938430538997 8.0
vertex 5.42149193507703 2.08531827660977 8.0
vertex 5.56011991771808 3.56547370962555 8.0
endloop
endfacet
facet normal 0.0 0.0 1.0
outer loop
vertex 5.56011991771808 3.56547370962555 8.0
vertex 5.42149193507703 2.08531827660977 8.0
vertex 6.16150508608908 2.2937237881197 8.0
endloop
endfacet
facet normal 0.0 0.0 1.0
outer loop
vertex 5.56011991771808 3.56547370962555 8.0
vertex 6.16150508608908 2.2937237881197 8.0
vertex 5.91231701899198 3.75932370988336 8.0
endloop
endfacet
facet normal 0.0 0.0 1.0
outer loop
vertex 5.91231701899198 3.75932370988336 8.0
vertex 6.16150508608908 2.2937237881197 8.0
vertex 6.20234122309673 4.03772374899811 8.0
endloop
endfacet
facet normal 0.0 0.0 1.0
outer loop
vertex 6.20234122309673 4.03772374899811 8.0
vertex 6.16150508608908 2.2937237881197 8.0
vertex 6.82236358496208 2.68655755113637 8.0
endloop
endfacet
facet normal 0.0 0.0 1.0
outer loop
vertex 6.20234122309673 4.03772374899811 8.0
vertex 6.82236358496208 2.68655755113637 8.0
vertex 6.41042785981026 4.38170132438195 8.0
endloop
endfacet
facet normal 0.0 0.0 1.0
outer loop
vertex 6.41042785981026 4.38170132438195 8.0
vertex 6.82236358496208 2.68655755113637 8.0
vertex 6.52239616871997 4.76781493272228 8.0
endloop
endfacet
facet normal 0.0 0.0 1.0
outer loop
vertex 6.52239616871997 4.76781493272228 8.0
vertex 6.82236358496208 2.68655755113637 8.0
vertex 6.53061569461003 5.16975156969362 8.0
endloop
endfacet
facet normal 0.0 0.0 1.0
outer loop
vertex 6.53061569461003 5.16975156969362 8.0
vertex 6.82236358496208 2.68655755113637 8.0
vertex 6.76295140610132 7.35903101711813 8.0
endloop
endfacet
facet normal 0.0 0.0 1.0
outer loop
vertex 6.76295140610132 7.35903101711813 8.0
vertex 6.82236358496208 2.68655755113637 8.0
vertex 7.31344244886363 6.82236358496208 8.0
endloop
endfacet
facet normal 0.0 0.0 1.0
outer loop
vertex 7.31344244886363 6.82236358496208 8.0
vertex 6.82236358496208 2.68655755113637 8.0
vertex 7.35903101711813 3.23704859389868 8.0
endloop
endfacet
facet normal 0.0 0.0 1.0
outer loop
vertex 7.31344244886363 6.82236358496208 8.0
vertex 7.35903101711813 3.23704859389868 8.0
vertex 7.7062762118803 6.16150508608908 8.0
endloop
endfacet
facet normal 0.0 0.0 1.0
outer loop
vertex 7.7062762118803 6.16150508608908 8.0
vertex 7.35903101711813 3.23704859389868 8.0
vertex 7.73493438394066 3.90768186157185 8.0
endloop
endfacet
facet normal 0.0 0.0 1.0
outer loop
vertex 7.7062762118803 6.16150508608908 8.0
vertex 7.73493438394066 3.90768186157185 8.0
vertex 7.91468172339023 5.42149193507703 8.0
endloop
endfacet
facet normal 0.0 0.0 1.0
outer loop
vertex 7.91468172339023 5.42149193507703 8.0
vertex 7.73493438394066 3.90768186157185 8.0
vertex 7.9244564921904 4.65275480523783 8.0
endloop
endfacet
facet normal 0.0 0.0 1.0
outer loop
vertex 2.08531827660977 4.57850806492297 8.0
vertex 2.26506561605934 6.09231813842815 8.0
vertex 2.0755435078096 5.34724519476217 8.0
endloop
endfacet
facet normal 0.0 0.0 1.0
outer loop
vertex 2.26506561605934 6.09231813842815 8.0
vertex 2.08531827660977 4.57850806492297 8.0
vertex 2.2937237881197 3.83849491391092 8.0
endloop
endfacet
facet normal 0.0 0.0 1.0
outer loop
vertex 2.26506561605934 6.09231813842815 8.0
vertex 2.2937237881197 3.83849491391092 8.0
vertex 2.64096898288187 6.76295140610132 8.0
endloop
endfacet
facet normal 0.0 0.0 1.0
outer loop
vertex 2.64096898288187 6.76295140610132 8.0
vertex 2.2937237881197 3.83849491391092 8.0
vertex 2.68655755113637 3.17763641503792 8.0
endloop
endfacet
facet normal 0.0 0.0 1.0
outer loop
vertex 2.64096898288187 6.76295140610132 8.0
vertex 2.68655755113637 3.17763641503792 8.0
vertex 3.17763641503792 7.31344244886363 8.0
endloop
endfacet
facet normal 0.0 0.0 1.0
outer loop
vertex 3.17763641503792 7.31344244886363 8.0
vertex 2.68655755113637 3.17763641503792 8.0
vertex 3.23704859389868 2.64096898288187 8.0
endloop
endfacet
facet normal 0.0 0.0 1.0
outer loop
vertex 3.17763641503792 7.31344244886363 8.0
vertex 3.23704859389868 2.64096898288187 8.0
vertex 3.47760383128003 5.23218506727772 8.0
endloop
endfacet
facet normal 0.0 0.0 1.0
outer loop
vertex 3.17763641503792 7.31344244886363 8.0
vertex 3.47760383128003 5.23218506727772 8.0
vertex 3.83849491391092 7.7062762118803 8.0
endloop
endfacet
facet normal 0.0 0.0 1.0
outer loop
vertex 3.47760383128003 5.23218506727772 8.0
vertex 3.23704859389868 2.64096898288187 8.0
vertex 3.46938430538997 4.83024843030638 8.0
endloop
endfacet
facet normal 0.0 0.0 1.0
outer loop
vertex 3.83849491391092 7.7062762118803 8.0
vertex 3.47760383128003 5.23218506727772 8.0
vertex 3.58957214018974 5.61829867561805 8.0
endloop
endfacet
facet normal 0.0 0.0 1.0
outer loop
vertex 3.83849491391092 7.7062762118803 8.0
vertex 3.58957214018974 5.61829867561805 8.0
vertex 3.79765877690327 5.96227625100189 8.0
endloop
endfacet
facet normal 0.0 0.0 1.0
outer loop
vertex 3.83849491391092 7.7062762118803 8.0
vertex 3.79765877690327 5.96227625100189 8.0
vertex 4.08768298100802 6.24067629011664 8.0
endloop
endfacet
facet normal 0.0 0.0 1.0
outer loop
vertex 3.83849491391092 7.7062762118803 8.0
vertex 4.08768298100802 6.24067629011664 8.0
vertex 4.57850806492297 7.91468172339023 8.0
endloop
endfacet
facet normal 0.0 0.0 1.0
outer loop
vertex 4.57850806492297 7.91468172339023 8.0
vertex 4.08768298100802 6.24067629011664 8.0
vertex 4.43988008228192 6.43452629037445 8.0
endloop
endfacet
facet normal 0.0 0.0 1.0
outer loop
vertex 4.57850806492297 7.91468172339023 8.0
vertex 4.43988008228192 6.43452629037445 8.0
vertex 4.83024843030638 6.53061569461003 8.0
endloop
endfacet
facet normal 0.0 0.0 1.0
outer loop
vertex 4.57850806492297 7.91468172339023 8.0
vertex 4.83024843030638 6.53061569461003 8.0
vertex 5.34724519476217 7.9244564921904 8.0
endloop
endfacet
facet normal 0.0 0.0 1.0
outer loop
vertex 5.34724519476217 7.9244564921904 8.0
vertex 4.83024843030638 6.53061569461003 8.0
vertex 5.23218506727772 6.52239616871997 8.0
endloop
endfacet
facet normal 0.0 0.0 1.0
outer loop
vertex 5.34724519476217 7.9244564921904 8.0
vertex 5.23218506727772 6.52239616871997 8.0
vertex 5.61829867561805 6.41042785981026 8.0
endloop
endfacet
facet normal 0.0 0.0 1.0
outer loop
vertex 5.34724519476217 7.9244564921904 8.0
vertex 5.61829867561805 6.41042785981026 8.0
vertex 6.09231813842815 7.73493438394066 8.0
endloop
endfacet
facet normal 0.0 0.0 1.0
outer loop
vertex 6.09231813842815 7.73493438394066 8.0
vertex 5.61829867561805 6.41042785981026 8.0
vertex 5.96227625100189 6.20234122309673 8.0
endloop
endfacet
facet normal 0.0 0.0 1.0
outer loop
vertex 6.09231813842815 7.73493438394066 8.0
vertex 5.96227625100189 6.20234122309673 8.0
vertex 6.24067629011664 5.91231701899198 8.0
endloop
endfacet
facet normal 0.0 0.0 1.0
outer loop
vertex 6.09231813842815 7.73493438394066 8.0
vertex 6.24067629011664 5.91231701899198 8.0
vertex 6.76295140610132 7.35903101711813 8.0
endloop
endfacet
facet normal 0.0 0.0 1.0
outer loop
vertex 6.76295140610132 7.35903101711813 8.0
vertex 6.24067629011664 5.91231701899198 8.0
vertex 6.43452629037445 5.56011991771808 8.0
endloop
endfacet
facet normal 0.0 0.0 1.0
outer loop
vertex 6.76295140610132 7.35903101711813 8.0
vertex 6.43452629037445 5.56011991771808 8.0
vertex 6.53061569461003 5.16975156969362 8.0
endloop
endfacet
facet normal -1.0 0.0 0.0
outer loop
vertex 0.0 20.0 10.0
vertex 0.0 0.0 0.0
vertex 0.0 0.0 10.0
endloop
endfacet
facet normal -1.0 0.0 0.0
outer loop
vertex 0.0 0.0 0.0
vertex 0.0 20.0 10.0
vertex 0.0 20.0 0.0
endloop
endfacet
facet normal 0.0 1.0 0.0
outer loop
vertex 0.0 20.0 10.0
vertex 20.0 20.0 0.0
vertex 0.0 20.0 0.0
endloop
endfacet
facet normal 0.0 1.0 0.0
outer loop
vertex 20.0 20.0 0.0
vertex 0.0 20.0 10.0
vertex 20.0 20.0 10.0
endloop
endfacet
facet normal 1.0 0.0 0.0
outer loop
vertex 20.0 20.0 0.0
vertex 20.0 0.0 10.0
vertex 20.0 0.0 0.0
endloop
endfacet
facet normal 1.0 0.0 0.0
outer loop
vertex 20.0 0.0 10.0
vertex 20.0 20.0 0.0
vertex 20.0 20.0 10.0
endloop
endfacet
facet normal 0.0 -1.0 0.0
outer loop
vertex 20.0 0.0 10.0
vertex 0.0 0.0 0.0
vertex 20.0 0.0 0.0
endloop
endfacet
facet normal 0.0 -1.0 0.0
outer loop
vertex 0.0 0.0 0.0
vertex 20.0 0.0 10.0
vertex 0.0 0.0 10.0
endloop
endfacet
facet normal -7.55348164968187e-017 -7.55348164968187e-017 1.0
outer loop
vertex 0.0 0.0 10.0
vertex 2.08531827660977 4.57850806492297 10.0
vertex 0.0 20.0 10.0
endloop
endfacet
facet normal -7.55348164968187e-017 -7.55348164968187e-017 1.0
outer loop
vertex 2.08531827660977 4.57850806492297 10.0
vertex 0.0 0.0 10.0
vertex 2.2937237881197 3.83849491391092 10.0
endloop
endfacet
facet normal -7.55348164968187e-017 -7.55348164968187e-017 1.0
outer loop
vertex 2.2937237881197 3.83849491391092 10.0
vertex 0.0 0.0 10.0
vertex 2.68655755113637 3.17763641503792 10.0
endloop
endfacet
facet normal -7.55348164968187e-017 -7.55348164968187e-017 1.0
outer loop
vertex 2.68655755113637 3.17763641503792 10.0
vertex 0.0 0.0 10.0
vertex 3.23704859389868 2.64096898288187 10.0
endloop
endfacet
facet normal -7.55348164968187e-017 -7.55348164968187e-017 1.0
outer loop
vertex 3.23704859389868 2.64096898288187 10.0
vertex 0.0 0.0 10.0
vertex 3.90768186157185 2.26506561605934 10.0
endloop
endfacet
facet normal -7.55348164968187e-017 -7.55348164968187e-017 1.0
outer loop
vertex 3.90768186157185 2.26506561605934 10.0
vertex 0.0 0.0 10.0
vertex 4.65275480523783 2.0755435078096 10.0
endloop
endfacet
facet normal -7.55348164968187e-017 -7.55348164968187e-017 1.0
outer loop
vertex 4.65275480523783 2.0755435078096 10.0
vertex 0.0 0.0 10.0
vertex 20.0 0.0 10.0
endloop
endfacet
facet normal -7.55348164968187e-017 -7.55348164968187e-017 1.0
outer loop
vertex 0.0 20.0 10.0
vertex 2.08531827660977 4.57850806492297 10.0
vertex 2.0755435078096 5.34724519476217 10.0
endloop
endfacet
facet normal -7.55348164968187e-017 -7.55348164968187e-017 1.0
outer loop
vertex 4.65275480523783 2.0755435078096 10.0
vertex 20.0 0.0 10.0
vertex 5.42149193507703 2.08531827660977 10.0
endloop
endfacet
facet normal -7.55348164968187e-017 -7.55348164968187e-017 1.0
outer loop
vertex 5.42149193507703 2.08531827660977 10.0
vertex 20.0 0.0 10.0
vertex 6.16150508608908 2.2937237881197 10.0
endloop
endfacet
facet normal -7.55348164968187e-017 -7.55348164968187e-017 1.0
outer loop
vertex 6.16150508608908 2.2937237881197 10.0
vertex 20.0 0.0 10.0
vertex 6.82236358496208 2.68655755113637 10.0
endloop
endfacet
facet normal -7.55348164968187e-017 -7.55348164968187e-017 1.0
outer loop
vertex 6.82236358496208 2.68655755113637 10.0
vertex 20.0 0.0 10.0
vertex 7.35903101711813 3.23704859389868 10.0
endloop
endfacet
facet normal -7.55348164968187e-017 -7.55348164968187e-017 1.0
outer loop
vertex 7.35903101711813 3.23704859389868 10.0
vertex 20.0 0.0 10.0
vertex 7.73493438394066 3.90768186157185 10.0
endloop
endfacet
facet normal -7.55348164968187e-017 -7.55348164968187e-017 1.0
outer loop
vertex 7.73493438394066 3.90768186157185 10.0
vertex 20.0 0.0 10.0
vertex 7.9244564921904 4.65275480523783 10.0
endloop
endfacet
facet normal -7.55348164968187e-017 -7.55348164968187e-017 1.0
outer loop
vertex 7.9244564921904 4.65275480523783 10.0
vertex 20.0 0.0 10.0
vertex 12.25 13.8 10.0
endloop
endfacet
facet normal -7.55348164968187e-017 -7.55348164968187e-017 1.0
outer loop
vertex 12.25 13.8 10.0
vertex 20.0 0.0 10.0
vertex 17.75 13.8 10.0
endloop
endfacet
facet normal -7.55348164968187e-017 -7.55348164968187e-017 1.0
outer loop
vertex 17.75 13.8 10.0
vertex 20.0 0.0 10.0
vertex 17.75 16.2 10.0
endloop
endfacet
facet normal -7.55348164968187e-017 -7.55348164968187e-017 1.0
outer loop
vertex 0.0 20.0 10.0
vertex 12.25 16.2 10.0
vertex 20.0 20.0 10.0
endloop
endfacet
facet normal -7.55348164968187e-017 -7.55348164968187e-017 1.0
outer loop
vertex 12.25 16.2 10.0
vertex 0.0 20.0 10.0
vertex 3.17763641503792 7.31344244886363 10.0
endloop
endfacet
facet normal -7.55348164968187e-017 -7.55348164968187e-017 1.0
outer loop
vertex 3.17763641503792 7.31344244886363 10.0
vertex 0.0 20.0 10.0
vertex 2.64096898288187 6.76295140610132 10.0
endloop
endfacet
facet normal -7.55348164968187e-017 -7.55348164968187e-017 1.0
outer loop
vertex 2.64096898288187 6.76295140610132 10.0
vertex 0.0 20.0 10.0
vertex 2.26506561605934 6.09231813842815 10.0
endloop
endfacet
facet normal -7.55348164968187e-017 -7.55348164968187e-017 1.0
outer loop
vertex 2.26506561605934 6.09231813842815 10.0
vertex 0.0 20.0 10.0
vertex 2.0755435078096 5.34724519476217 10.0
endloop
endfacet
facet normal -7.55348164968187e-017 -7.55348164968187e-017 1.0
outer loop
vertex 12.25 16.2 10.0
vertex 3.17763641503792 7.31344244886363 10.0
vertex 3.83849491391092 7.7062762118803 10.0
endloop
endfacet
facet normal -7.55348164968187e-017 -7.55348164968187e-017 1.0
outer loop
vertex 12.25 16.2 10.0
vertex 3.83849491391092 7.7062762118803 10.0
vertex 4.57850806492297 7.91468172339023 10.0
endloop
endfacet
facet normal -7.55348164968187e-017 -7.55348164968187e-017 1.0
outer loop
vertex 12.25 16.2 10.0
vertex 4.57850806492297 7.91468172339023 10.0
vertex 5.34724519476217 7.9244564921904 10.0
endloop
endfacet
facet normal -7.55348164968187e-017 -7.55348164968187e-017 1.0
outer loop
vertex 12.25 16.2 10.0
vertex 5.34724519476217 7.9244564921904 10.0
vertex 6.09231813842815 7.73493438394066 10.0
endloop
endfacet
facet normal -7.55348164968187e-017 -7.55348164968187e-017 1.0
outer loop
vertex 12.25 16.2 10.0
vertex 6.09231813842815 7.73493438394066 10.0
vertex 6.76295140610132 7.35903101711813 10.0
endloop
endfacet
facet normal -7.55348164968187e-017 -7.55348164968187e-017 1.0
outer loop
vertex 12.25 16.2 10.0
vertex 6.76295140610132 7.35903101711813 10.0
vertex 7.31344244886363 6.82236358496208 10.0
endloop
endfacet
facet normal -7.55348164968187e-017 -7.55348164968187e-017 1.0
outer loop
vertex 12.25 16.2 10.0
vertex 7.31344244886363 6.82236358496208 10.0
vertex 7.7062762118803 6.16150508608908 10.0
endloop
endfacet
facet normal -7.55348164968187e-017 -7.55348164968187e-017 1.0
outer loop
vertex 12.25 16.2 10.0
vertex 7.7062762118803 6.16150508608908 10.0
vertex 7.91468172339023 5.42149193507703 10.0
endloop
endfacet
facet normal -7.55348164968187e-017 -7.55348164968187e-017 1.0
outer loop
vertex 12.25 16.2 10.0
vertex 7.91468172339023 5.42149193507703 10.0
vertex 7.9244564921904 4.65275480523783 10.0
endloop
endfacet
facet normal -7.55348164968187e-017 -7.55348164968187e-017 1.0
outer loop
vertex 12.25 16.2 10.0
vertex 7.9244564921904 4.65275480523783 10.0
vertex 12.25 13.8 10.0
endloop
endfacet
facet normal -7.55348164968187e-017 -7.55348164968187e-017 1.0
outer loop
vertex 20.0 20.0 10.0
vertex 12.25 16.2 10.0
vertex 17.75 16.2 10.0
endloop
endfacet
facet normal -7.55348164968187e-017 -7.55348164968187e-017 1.0
outer loop
vertex 20.0 20.0 10.0
vertex 17.75 16.2 10.0
vertex 20.0 0.0 10.0
endloop
endfacet
facet normal -1.28180294661268e-016 -2.93746508598739e-016 1.0
outer loop
vertex 17.75 13.8 5.0
vertex 12.25 16.2 5.0
vertex 12.25 13.8 5.0
endloop
endfacet
facet normal -1.28180294661268e-016 -2.93746508598739e-016 1.0
outer loop
vertex 12.25 16.2 5.0
vertex 17.75 13.8 5.0
vertex 17.75 16.2 5.0
endloop
endfacet
facet normal 1.0 0.0 1.28180294661268e-016
outer loop
vertex 12.25 13.8 5.0
vertex 12.25 16.2 10.0
vertex 12.25 13.8 10.0
endloop
endfacet
facet normal 1.0 0.0 1.28180294661268e-016
outer loop
vertex 12.25 16.2 10.0
vertex 12.25 13.8 5.0
vertex 12.25 16.2 5.0
endloop
endfacet
facet normal 0.801029207849959 -0.598625265229649 0.0
outer loop
vertex 2.64096898288187 6.76295140610132 8.0
vertex 2.26506561605934 6.09231813842815 10.0
vertex 2.26506561605934 6.09231813842815 8.0
endloop
endfacet
facet normal 0.92867041899513 -0.370905989279506 0.0
outer loop
vertex 2.26506561605934 6.09231813842815 10.0
vertex 2.64096898288187 6.76295140610132 8.0
vertex 2.64096898288187 6.76295140610132 10.0
endloop
endfacet
facet normal 0.92867041899513 -0.370905989279506 0.0
outer loop
vertex 2.26506561605934 6.09231813842815 8.0
vertex 2.0755435078096 5.34724519476217 10.0
vertex 2.0755435078096 5.34724519476217 8.0
endloop
endfacet
facet normal 0.993024275786214 -0.117910083111094 0.0
outer loop
vertex 2.0755435078096 5.34724519476217 10.0
vertex 2.26506561605934 6.09231813842815 8.0
vertex 2.26506561605934 6.09231813842815 10.0
endloop
endfacet
facet normal 0.993024275786214 -0.117910083111094 0.0
outer loop
vertex 2.0755435078096 5.34724519476217 8.0
vertex 2.08531827660977 4.57850806492297 10.0
vertex 2.08531827660977 4.57850806492297 8.0
endloop
endfacet
facet normal 0.989705169232675 0.143121200365714 0.0
outer loop
vertex 2.08531827660977 4.57850806492297 10.0
vertex 2.0755435078096 5.34724519476217 8.0
vertex 2.0755435078096 5.34724519476217 10.0
endloop
endfacet
facet normal 0.989705169232675 0.143121200365714 0.0
outer loop
vertex 2.08531827660977 4.57850806492297 8.0
vertex 2.2937237881197 3.83849491391092 10.0
vertex 2.2937237881197 3.83849491391092 8.0
endloop
endfacet
facet normal 0.918939290961053 0.394399010556565 0.0
outer loop
vertex 2.2937237881197 3.83849491391092 10.0
vertex 2.08531827660977 4.57850806492297 8.0
vertex 2.08531827660977 4.57850806492297 10.0
endloop
endfacet
facet normal 0.918939290961053 0.394399010556565 0.0
outer loop
vertex 2.2937237881197 3.83849491391092 8.0
vertex 2.68655755113637 3.17763641503792 10.0
vertex 2.68655755113637 3.17763641503792 8.0
endloop
endfacet
facet normal 0.785549218629416 0.618799179953168 0.0
outer loop
vertex 2.68655755113637 3.17763641503792 10.0
vertex 2.2937237881197 3.83849491391092 8.0
vertex 2.2937237881197 3.83849491391092 10.0
endloop
endfacet
facet normal 0.785549218629416 0.618799179953168 0.0
outer loop
vertex 2.68655755113637 3.17763641503792 10.0
vertex 3.23704859389868 2.64096898288187 8.0
vertex 2.68655755113637 3.17763641503792 8.0
endloop
endfacet
facet normal 0.598625265229649 0.801029207849959 0.0
outer loop
vertex 3.23704859389868 2.64096898288187 8.0
vertex 2.68655755113637 3.17763641503792 10.0
vertex 3.23704859389868 2.64096898288187 10.0
endloop
endfacet
facet normal 0.598625265229649 0.801029207849959 0.0
outer loop
vertex 3.23704859389868 2.64096898288187 10.0
vertex 3.90768186157185 2.26506561605934 8.0
vertex 3.23704859389868 2.64096898288187 8.0
endloop
endfacet
facet normal 0.370905989279506 0.92867041899513 0.0
outer loop
vertex 3.90768186157185 2.26506561605934 8.0
vertex 3.23704859389868 2.64096898288187 10.0
vertex 3.90768186157185 2.26506561605934 10.0
endloop
endfacet
facet normal 0.370905989279506 0.92867041899513 0.0
outer loop
vertex 3.90768186157185 2.26506561605934 10.0
vertex 4.65275480523783 2.0755435078096 8.0
vertex 3.90768186157185 2.26506561605934 8.0
endloop
endfacet
facet normal 0.117910083111094 0.993024275786214 0.0
outer loop
vertex 4.65275480523783 2.0755435078096 8.0
vertex 3.90768186157185 2.26506561605934 10.0
vertex 4.65275480523783 2.0755435078096 10.0
endloop
endfacet
facet normal 0.117910083111094 0.993024275786214 0.0
outer loop
vertex 4.65275480523783 2.0755435078096 10.0
vertex 5.42149193507703 2.08531827660977 8.0
vertex 4.65275480523783 2.0755435078096 8.0
endloop
endfacet
facet normal -0.143121200365714 0.989705169232675 0.0
outer loop
vertex 5.42149193507703 2.08531827660977 8.0
vertex 4.65275480523783 2.0755435078096 10.0
vertex 5.42149193507703 2.08531827660977 10.0
endloop
endfacet
facet normal -0.143121200365714 0.989705169232675 0.0
outer loop
vertex 5.42149193507703 2.08531827660977 10.0
vertex 6.16150508608908 2.2937237881197 8.0
vertex 5.42149193507703 2.08531827660977 8.0
endloop
endfacet
facet normal -0.394399010556565 0.918939290961053 0.0
outer loop
vertex 6.16150508608908 2.2937237881197 8.0
vertex 5.42149193507703 2.08531827660977 10.0
vertex 6.16150508608908 2.2937237881197 10.0
endloop
endfacet
facet normal -0.394399010556565 0.918939290961053 0.0
outer loop
vertex 6.16150508608908 2.2937237881197 10.0
vertex 6.82236358496208 2.68655755113637 8.0
vertex 6.16150508608908 2.2937237881197 8.0
endloop
endfacet
facet normal -0.618799179953168 0.785549218629416 0.0
outer loop
vertex 6.82236358496208 2.68655755113637 8.0
vertex 6.16150508608908 2.2937237881197 10.0
vertex 6.82236358496208 2.68655755113637 10.0
endloop
endfacet
facet normal -0.801029207849959 0.598625265229649 0.0
outer loop
vertex 7.35903101711813 3.23704859389868 10.0
vertex 6.82236358496208 2.68655755113637 8.0
vertex 6.82236358496208 2.68655755113637 10.0
endloop
endfacet
facet normal -0.618799179953168 0.785549218629416 0.0
outer loop
vertex 6.82236358496208 2.68655755113637 8.0
vertex 7.35903101711813 3.23704859389868 10.0
vertex 7.35903101711813 3.23704859389868 8.0
endloop
endfacet
facet normal -0.92867041899513 0.370905989279507 0.0
outer loop
vertex 7.73493438394066 3.90768186157185 10.0
vertex 7.35903101711813 3.23704859389868 8.0
vertex 7.35903101711813 3.23704859389868 10.0
endloop
endfacet
facet normal -0.801029207849959 0.598625265229649 0.0
outer loop
vertex 7.35903101711813 3.23704859389868 8.0
vertex 7.73493438394066 3.90768186157185 10.0
vertex 7.73493438394066 3.90768186157185 8.0
endloop
endfacet
facet normal -0.993024275786214 0.117910083111095 0.0
outer loop
vertex 7.9244564921904 4.65275480523783 10.0
vertex 7.73493438394066 3.90768186157185 8.0
vertex 7.73493438394066 3.90768186157185 10.0
endloop
endfacet
facet normal -0.92867041899513 0.370905989279507 0.0
outer loop
vertex 7.73493438394066 3.90768186157185 8.0
vertex 7.9244564921904 4.65275480523783 10.0
vertex 7.9244564921904 4.65275480523783 8.0
endloop
endfacet
facet normal -0.989705169232675 -0.143121200365714 0.0
outer loop
vertex 7.91468172339023 5.42149193507703 10.0
vertex 7.9244564921904 4.65275480523783 8.0
vertex 7.9244564921904 4.65275480523783 10.0
endloop
endfacet
facet normal -0.993024275786214 0.117910083111095 0.0
outer loop
vertex 7.9244564921904 4.65275480523783 8.0
vertex 7.91468172339023 5.42149193507703 10.0
vertex 7.91468172339023 5.42149193507703 8.0
endloop
endfacet
facet normal -0.918939290961053 -0.394399010556565 0.0
outer loop
vertex 7.7062762118803 6.16150508608908 10.0
vertex 7.91468172339023 5.42149193507703 8.0
vertex 7.91468172339023 5.42149193507703 10.0
endloop
endfacet
facet normal -0.989705169232675 -0.143121200365714 0.0
outer loop
vertex 7.91468172339023 5.42149193507703 8.0
vertex 7.7062762118803 6.16150508608908 10.0
vertex 7.7062762118803 6.16150508608908 8.0
endloop
endfacet
facet normal -0.785549218629417 -0.618799179953168 0.0
outer loop
vertex 7.31344244886363 6.82236358496208 10.0
vertex 7.7062762118803 6.16150508608908 8.0
vertex 7.7062762118803 6.16150508608908 10.0
endloop
endfacet
facet normal -0.918939290961053 -0.394399010556565 0.0
outer loop
vertex 7.7062762118803 6.16150508608908 8.0
vertex 7.31344244886363 6.82236358496208 10.0
vertex 7.31344244886363 6.82236358496208 8.0
endloop
endfacet
facet normal -0.785549218629417 -0.618799179953168 0.0
outer loop
vertex 7.31344244886363 6.82236358496208 10.0
vertex 6.76295140610132 7.35903101711813 8.0
vertex 7.31344244886363 6.82236358496208 8.0
endloop
endfacet
facet normal -0.598625265229649 -0.801029207849959 0.0
outer loop
vertex 6.76295140610132 7.35903101711813 8.0
vertex 7.31344244886363 6.82236358496208 10.0
vertex 6.76295140610132 7.35903101711813 10.0
endloop
endfacet
facet normal -0.598625265229649 -0.801029207849959 0.0
outer loop
vertex 6.76295140610132 7.35903101711813 10.0
vertex 6.09231813842815 7.73493438394066 8.0
vertex 6.76295140610132 7.35903101711813 8.0
endloop
endfacet
facet normal -0.370905989279507 -0.92867041899513 0.0
outer loop
vertex 6.09231813842815 7.73493438394066 8.0
vertex 6.76295140610132 7.35903101711813 10.0
vertex 6.09231813842815 7.73493438394066 10.0
endloop
endfacet
facet normal -0.370905989279507 -0.92867041899513 0.0
outer loop
vertex 6.09231813842815 7.73493438394066 10.0
vertex 5.34724519476217 7.9244564921904 8.0
vertex 6.09231813842815 7.73493438394066 8.0
endloop
endfacet
facet normal -0.117910083111094 -0.993024275786214 0.0
outer loop
vertex 5.34724519476217 7.9244564921904 8.0
vertex 6.09231813842815 7.73493438394066 10.0
vertex 5.34724519476217 7.9244564921904 10.0
endloop
endfacet
facet normal -0.117910083111094 -0.993024275786214 0.0
outer loop
vertex 5.34724519476217 7.9244564921904 10.0
vertex 4.57850806492297 7.91468172339023 8.0
vertex 5.34724519476217 7.9244564921904 8.0
endloop
endfacet
facet normal 0.143121200365714 -0.989705169232675 0.0
outer loop
vertex 4.57850806492297 7.91468172339023 8.0
vertex 5.34724519476217 7.9244564921904 10.0
vertex 4.57850806492297 7.91468172339023 10.0
endloop
endfacet
facet normal 0.143121200365714 -0.989705169232675 0.0
outer loop
vertex 4.57850806492297 7.91468172339023 10.0
vertex 3.83849491391092 7.7062762118803 8.0
vertex 4.57850806492297 7.91468172339023 8.0
endloop
endfacet
facet normal 0.394399010556565 -0.918939290961053 0.0
outer loop
vertex 3.83849491391092 7.7062762118803 8.0
vertex 4.57850806492297 7.91468172339023 10.0
vertex 3.83849491391092 7.7062762118803 10.0
endloop
endfacet
facet normal 0.394399010556565 -0.918939290961053 0.0
outer loop
vertex 3.83849491391092 7.7062762118803 10.0
vertex 3.17763641503792 7.31344244886363 8.0
vertex 3.83849491391092 7.7062762118803 8.0
endloop
endfacet
facet normal 0.618799179953168 -0.785549218629417 0.0
outer loop
vertex 3.17763641503792 7.31344244886363 8.0
vertex 3.83849491391092 7.7062762118803 10.0
vertex 3.17763641503792 7.31344244886363 10.0
endloop
endfacet
facet normal 0.618799179953168 -0.785549218629417 0.0
outer loop
vertex 3.17763641503792 7.31344244886363 8.0
vertex 2.64096898288187 6.76295140610132 10.0
vertex 2.64096898288187 6.76295140610132 8.0
endloop
endfacet
facet normal 0.801029207849959 -0.598625265229649 0.0
outer loop
vertex 2.64096898288187 6.76295140610132 10.0
vertex 3.17763641503792 7.31344244886363 8.0
vertex 3.17763641503792 7.31344244886363 10.0
endloop
endfacet
endsolid Calibration
